<mxfile host="Electron" modified="2024-01-16T18:33:22.128Z" agent="Mozilla/5.0 (Windows NT 10.0; Win64; x64) AppleWebKit/537.36 (KHTML, like Gecko) draw.io/22.0.2 Chrome/114.0.5735.289 Electron/25.8.4 Safari/537.36" etag="L-t7W50b8S80JskHdjJ6" version="22.0.2" type="device">
  <diagram name="Strona-1" id="Y9pxZvvjv8XBWWR_BkB3">
    <mxGraphModel dx="1434" dy="836" grid="1" gridSize="10" guides="1" tooltips="1" connect="1" arrows="1" fold="1" page="1" pageScale="1" pageWidth="827" pageHeight="1169" math="0" shadow="0">
      <root>
        <mxCell id="0" />
        <mxCell id="1" parent="0" />
        <mxCell id="ChVJ7lrTDxY2uoq3VyV2-9" value="" style="edgeStyle=orthogonalEdgeStyle;rounded=0;orthogonalLoop=1;jettySize=auto;html=1;exitX=0.5;exitY=1;exitDx=0;exitDy=0;exitPerimeter=0;entryX=0.5;entryY=0;entryDx=0;entryDy=0;" parent="1" source="ChVJ7lrTDxY2uoq3VyV2-1" target="ChVJ7lrTDxY2uoq3VyV2-3" edge="1">
          <mxGeometry relative="1" as="geometry" />
        </mxCell>
        <mxCell id="ChVJ7lrTDxY2uoq3VyV2-1" value="START" style="strokeWidth=2;html=1;shape=mxgraph.flowchart.start_1;whiteSpace=wrap;" parent="1" vertex="1">
          <mxGeometry x="55.75000000000001" y="10" width="133.33" height="80" as="geometry" />
        </mxCell>
        <mxCell id="ChVJ7lrTDxY2uoq3VyV2-6" value="" style="edgeStyle=orthogonalEdgeStyle;rounded=0;orthogonalLoop=1;jettySize=auto;html=1;exitX=1;exitY=0.5;exitDx=0;exitDy=0;entryX=0;entryY=0.5;entryDx=0;entryDy=0;" parent="1" source="ChVJ7lrTDxY2uoq3VyV2-2" target="ChVJ7lrTDxY2uoq3VyV2-5" edge="1">
          <mxGeometry relative="1" as="geometry" />
        </mxCell>
        <mxCell id="ChVJ7lrTDxY2uoq3VyV2-10" value="FALSE" style="edgeLabel;html=1;align=center;verticalAlign=middle;resizable=0;points=[];" parent="ChVJ7lrTDxY2uoq3VyV2-6" vertex="1" connectable="0">
          <mxGeometry x="-0.2963" y="-2" relative="1" as="geometry">
            <mxPoint x="-13" y="-17" as="offset" />
          </mxGeometry>
        </mxCell>
        <mxCell id="ChVJ7lrTDxY2uoq3VyV2-7" value="" style="edgeStyle=orthogonalEdgeStyle;rounded=0;orthogonalLoop=1;jettySize=auto;html=1;exitX=0.5;exitY=1;exitDx=0;exitDy=0;entryX=0.5;entryY=0;entryDx=0;entryDy=0;" parent="1" source="ChVJ7lrTDxY2uoq3VyV2-2" target="ChVJ7lrTDxY2uoq3VyV2-4" edge="1">
          <mxGeometry relative="1" as="geometry" />
        </mxCell>
        <mxCell id="ChVJ7lrTDxY2uoq3VyV2-11" value="TRUE" style="edgeLabel;html=1;align=center;verticalAlign=middle;resizable=0;points=[];" parent="ChVJ7lrTDxY2uoq3VyV2-7" vertex="1" connectable="0">
          <mxGeometry x="-0.6524" relative="1" as="geometry">
            <mxPoint x="18" as="offset" />
          </mxGeometry>
        </mxCell>
        <mxCell id="ChVJ7lrTDxY2uoq3VyV2-2" value="Does &quot;configFileName&quot; &lt;br&gt;exist in system files?" style="rhombus;whiteSpace=wrap;html=1;" parent="1" vertex="1">
          <mxGeometry x="44.25" y="210" width="156.34" height="150" as="geometry" />
        </mxCell>
        <mxCell id="ChVJ7lrTDxY2uoq3VyV2-8" value="" style="edgeStyle=orthogonalEdgeStyle;rounded=0;orthogonalLoop=1;jettySize=auto;html=1;exitX=0.5;exitY=1;exitDx=0;exitDy=0;entryX=0.5;entryY=0;entryDx=0;entryDy=0;" parent="1" source="ChVJ7lrTDxY2uoq3VyV2-3" target="ChVJ7lrTDxY2uoq3VyV2-2" edge="1">
          <mxGeometry relative="1" as="geometry" />
        </mxCell>
        <mxCell id="ChVJ7lrTDxY2uoq3VyV2-3" value="Â string configFileName = &quot;config.ini" style="rounded=0;whiteSpace=wrap;html=1;" parent="1" vertex="1">
          <mxGeometry x="37.409999999999975" y="120" width="170" height="60" as="geometry" />
        </mxCell>
        <mxCell id="ChVJ7lrTDxY2uoq3VyV2-13" value="" style="edgeStyle=orthogonalEdgeStyle;rounded=0;orthogonalLoop=1;jettySize=auto;html=1;exitX=0.5;exitY=1;exitDx=0;exitDy=0;entryX=0.5;entryY=0;entryDx=0;entryDy=0;" parent="1" source="ChVJ7lrTDxY2uoq3VyV2-4" target="ChVJ7lrTDxY2uoq3VyV2-12" edge="1">
          <mxGeometry relative="1" as="geometry" />
        </mxCell>
        <mxCell id="ChVJ7lrTDxY2uoq3VyV2-4" value="configManager.readConfig()" style="shape=process;whiteSpace=wrap;html=1;backgroundOutline=1;" parent="1" vertex="1">
          <mxGeometry x="26.07999999999999" y="400" width="192.68" height="60" as="geometry" />
        </mxCell>
        <mxCell id="ChVJ7lrTDxY2uoq3VyV2-5" value="configManager.createConfig()" style="shape=process;whiteSpace=wrap;html=1;backgroundOutline=1;" parent="1" vertex="1">
          <mxGeometry x="280" y="245" width="209.42" height="80" as="geometry" />
        </mxCell>
        <mxCell id="ChVJ7lrTDxY2uoq3VyV2-15" value="" style="edgeStyle=orthogonalEdgeStyle;rounded=0;orthogonalLoop=1;jettySize=auto;html=1;exitX=0.5;exitY=1;exitDx=0;exitDy=0;entryX=0.5;entryY=0;entryDx=0;entryDy=0;" parent="1" source="ChVJ7lrTDxY2uoq3VyV2-12" target="ChVJ7lrTDxY2uoq3VyV2-14" edge="1">
          <mxGeometry relative="1" as="geometry" />
        </mxCell>
        <mxCell id="ChVJ7lrTDxY2uoq3VyV2-12" value="string databaseFileName = configManager.getValue(&quot;database_file&quot;)" style="rounded=0;whiteSpace=wrap;html=1;" parent="1" vertex="1">
          <mxGeometry x="7.105427357601002e-15" y="480" width="244.83" height="60" as="geometry" />
        </mxCell>
        <mxCell id="ChVJ7lrTDxY2uoq3VyV2-18" value="" style="edgeStyle=orthogonalEdgeStyle;rounded=0;orthogonalLoop=1;jettySize=auto;html=1;exitX=0.5;exitY=1;exitDx=0;exitDy=0;entryX=0.5;entryY=0;entryDx=0;entryDy=0;" parent="1" source="ChVJ7lrTDxY2uoq3VyV2-14" target="ChVJ7lrTDxY2uoq3VyV2-17" edge="1">
          <mxGeometry relative="1" as="geometry" />
        </mxCell>
        <mxCell id="ChVJ7lrTDxY2uoq3VyV2-14" value="checkOrCreateDatabaseFile()" style="shape=process;whiteSpace=wrap;html=1;backgroundOutline=1;" parent="1" vertex="1">
          <mxGeometry x="8.509999999999998" y="570" width="227.82" height="60" as="geometry" />
        </mxCell>
        <mxCell id="ChVJ7lrTDxY2uoq3VyV2-20" value="" style="edgeStyle=orthogonalEdgeStyle;rounded=0;orthogonalLoop=1;jettySize=auto;html=1;exitX=1;exitY=0.5;exitDx=0;exitDy=0;entryX=0;entryY=0.5;entryDx=0;entryDy=0;" parent="1" source="ChVJ7lrTDxY2uoq3VyV2-17" target="ChVJ7lrTDxY2uoq3VyV2-19" edge="1">
          <mxGeometry relative="1" as="geometry" />
        </mxCell>
        <mxCell id="ChVJ7lrTDxY2uoq3VyV2-107" value="FALSE" style="edgeLabel;html=1;align=center;verticalAlign=middle;resizable=0;points=[];" parent="ChVJ7lrTDxY2uoq3VyV2-20" vertex="1" connectable="0">
          <mxGeometry x="-0.3923" y="1" relative="1" as="geometry">
            <mxPoint x="-9" y="-14" as="offset" />
          </mxGeometry>
        </mxCell>
        <mxCell id="ChVJ7lrTDxY2uoq3VyV2-22" value="" style="edgeStyle=orthogonalEdgeStyle;rounded=0;orthogonalLoop=1;jettySize=auto;html=1;exitX=0.5;exitY=1;exitDx=0;exitDy=0;entryX=0.5;entryY=0;entryDx=0;entryDy=0;" parent="1" source="ChVJ7lrTDxY2uoq3VyV2-17" target="ChVJ7lrTDxY2uoq3VyV2-21" edge="1">
          <mxGeometry relative="1" as="geometry" />
        </mxCell>
        <mxCell id="ChVJ7lrTDxY2uoq3VyV2-109" value="TRUE" style="edgeLabel;html=1;align=center;verticalAlign=middle;resizable=0;points=[];" parent="ChVJ7lrTDxY2uoq3VyV2-22" vertex="1" connectable="0">
          <mxGeometry x="-0.08" y="-1" relative="1" as="geometry">
            <mxPoint x="19" y="-9" as="offset" />
          </mxGeometry>
        </mxCell>
        <mxCell id="ChVJ7lrTDxY2uoq3VyV2-17" value="&#xa;Does database load?&#xa;" style="rhombus;whiteSpace=wrap;html=1;" parent="1" vertex="1">
          <mxGeometry x="54.58" y="660" width="135.49" height="130" as="geometry" />
        </mxCell>
        <mxCell id="ChVJ7lrTDxY2uoq3VyV2-19" value="displayMessages(&quot;databaseError&quot;)" style="shape=process;whiteSpace=wrap;html=1;backgroundOutline=1;" parent="1" vertex="1">
          <mxGeometry x="250.57999999999996" y="695" width="240" height="60" as="geometry" />
        </mxCell>
        <mxCell id="ChVJ7lrTDxY2uoq3VyV2-25" value="" style="edgeStyle=orthogonalEdgeStyle;rounded=0;orthogonalLoop=1;jettySize=auto;html=1;exitX=0.5;exitY=1;exitDx=0;exitDy=0;entryX=0.5;entryY=0;entryDx=0;entryDy=0;" parent="1" source="ChVJ7lrTDxY2uoq3VyV2-21" target="ChVJ7lrTDxY2uoq3VyV2-24" edge="1">
          <mxGeometry relative="1" as="geometry" />
        </mxCell>
        <mxCell id="ChVJ7lrTDxY2uoq3VyV2-21" value="string selectedColor = configManager.getValue(&quot;selected_colour&quot;);" style="rounded=0;whiteSpace=wrap;html=1;" parent="1" vertex="1">
          <mxGeometry x="2.3300000000000054" y="820" width="240" height="60" as="geometry" />
        </mxCell>
        <mxCell id="ChVJ7lrTDxY2uoq3VyV2-27" value="" style="edgeStyle=orthogonalEdgeStyle;rounded=0;orthogonalLoop=1;jettySize=auto;html=1;exitX=0.5;exitY=1;exitDx=0;exitDy=0;entryX=0.5;entryY=0;entryDx=0;entryDy=0;" parent="1" source="ChVJ7lrTDxY2uoq3VyV2-24" target="ChVJ7lrTDxY2uoq3VyV2-26" edge="1">
          <mxGeometry relative="1" as="geometry" />
        </mxCell>
        <mxCell id="ChVJ7lrTDxY2uoq3VyV2-24" value="setConsoleColor()" style="shape=process;whiteSpace=wrap;html=1;backgroundOutline=1;" parent="1" vertex="1">
          <mxGeometry x="41.57999999999999" y="900" width="161.5" height="60" as="geometry" />
        </mxCell>
        <mxCell id="ChVJ7lrTDxY2uoq3VyV2-30" value="" style="edgeStyle=orthogonalEdgeStyle;rounded=0;orthogonalLoop=1;jettySize=auto;html=1;exitX=0.5;exitY=1;exitDx=0;exitDy=0;entryX=0.5;entryY=0;entryDx=0;entryDy=0;" parent="1" source="ChVJ7lrTDxY2uoq3VyV2-26" target="ChVJ7lrTDxY2uoq3VyV2-29" edge="1">
          <mxGeometry relative="1" as="geometry" />
        </mxCell>
        <mxCell id="ChVJ7lrTDxY2uoq3VyV2-26" value="bool exitProgram = false;" style="rounded=0;whiteSpace=wrap;html=1;" parent="1" vertex="1">
          <mxGeometry x="38.239999999999974" y="980" width="168.17" height="60" as="geometry" />
        </mxCell>
        <mxCell id="ChVJ7lrTDxY2uoq3VyV2-41" value="" style="edgeStyle=orthogonalEdgeStyle;rounded=0;orthogonalLoop=1;jettySize=auto;html=1;exitX=1;exitY=0.5;exitDx=0;exitDy=0;entryX=0;entryY=0.5;entryDx=0;entryDy=0;" parent="1" source="ChVJ7lrTDxY2uoq3VyV2-29" target="ChVJ7lrTDxY2uoq3VyV2-40" edge="1">
          <mxGeometry relative="1" as="geometry" />
        </mxCell>
        <mxCell id="ChVJ7lrTDxY2uoq3VyV2-42" value="FALSE" style="edgeLabel;html=1;align=center;verticalAlign=middle;resizable=0;points=[];" parent="ChVJ7lrTDxY2uoq3VyV2-41" vertex="1" connectable="0">
          <mxGeometry x="-0.3066" y="2" relative="1" as="geometry">
            <mxPoint x="-8" y="-13" as="offset" />
          </mxGeometry>
        </mxCell>
        <mxCell id="ChVJ7lrTDxY2uoq3VyV2-29" value="Is &quot;exitProgram&quot; true?" style="rhombus;whiteSpace=wrap;html=1;" parent="1" vertex="1">
          <mxGeometry x="52.42" y="1090" width="140" height="140" as="geometry" />
        </mxCell>
        <mxCell id="ChVJ7lrTDxY2uoq3VyV2-35" value="END" style="strokeWidth=2;html=1;shape=mxgraph.flowchart.start_1;whiteSpace=wrap;" parent="1" vertex="1">
          <mxGeometry x="55.66000000000004" y="1270" width="133.33" height="80" as="geometry" />
        </mxCell>
        <mxCell id="ChVJ7lrTDxY2uoq3VyV2-37" value="" style="edgeStyle=orthogonalEdgeStyle;rounded=0;orthogonalLoop=1;jettySize=auto;html=1;exitX=0.5;exitY=1;exitDx=0;exitDy=0;entryX=0.5;entryY=0;entryDx=0;entryDy=0;entryPerimeter=0;" parent="1" source="ChVJ7lrTDxY2uoq3VyV2-29" target="ChVJ7lrTDxY2uoq3VyV2-35" edge="1">
          <mxGeometry relative="1" as="geometry" />
        </mxCell>
        <mxCell id="ChVJ7lrTDxY2uoq3VyV2-39" value="TRUE" style="edgeLabel;html=1;align=center;verticalAlign=middle;resizable=0;points=[];" parent="ChVJ7lrTDxY2uoq3VyV2-37" vertex="1" connectable="0">
          <mxGeometry x="-0.3636" y="3" relative="1" as="geometry">
            <mxPoint x="17" as="offset" />
          </mxGeometry>
        </mxCell>
        <mxCell id="ChVJ7lrTDxY2uoq3VyV2-44" value="" style="edgeStyle=orthogonalEdgeStyle;rounded=0;orthogonalLoop=1;jettySize=auto;html=1;exitX=0.5;exitY=1;exitDx=0;exitDy=0;entryX=0.5;entryY=0;entryDx=0;entryDy=0;" parent="1" source="ChVJ7lrTDxY2uoq3VyV2-40" target="ChVJ7lrTDxY2uoq3VyV2-43" edge="1">
          <mxGeometry relative="1" as="geometry" />
        </mxCell>
        <mxCell id="ChVJ7lrTDxY2uoq3VyV2-40" value="system(&quot;CLS&quot;)" style="shape=process;whiteSpace=wrap;html=1;backgroundOutline=1;" parent="1" vertex="1">
          <mxGeometry x="250.57999999999998" y="1130" width="160" height="60" as="geometry" />
        </mxCell>
        <mxCell id="ChVJ7lrTDxY2uoq3VyV2-47" value="" style="edgeStyle=orthogonalEdgeStyle;rounded=0;orthogonalLoop=1;jettySize=auto;html=1;exitX=0.5;exitY=1;exitDx=0;exitDy=0;entryX=0.5;entryY=0;entryDx=0;entryDy=0;" parent="1" source="ChVJ7lrTDxY2uoq3VyV2-43" target="ChVJ7lrTDxY2uoq3VyV2-46" edge="1">
          <mxGeometry relative="1" as="geometry" />
        </mxCell>
        <mxCell id="ChVJ7lrTDxY2uoq3VyV2-43" value="userInterface.display();" style="shape=process;whiteSpace=wrap;html=1;backgroundOutline=1;" parent="1" vertex="1">
          <mxGeometry x="248.75000000000006" y="1215" width="163.66" height="60" as="geometry" />
        </mxCell>
        <mxCell id="ChVJ7lrTDxY2uoq3VyV2-50" value="" style="edgeStyle=orthogonalEdgeStyle;rounded=0;orthogonalLoop=1;jettySize=auto;html=1;exitX=0.5;exitY=1;exitDx=0;exitDy=0;entryX=0.5;entryY=0;entryDx=0;entryDy=0;" parent="1" source="ChVJ7lrTDxY2uoq3VyV2-46" target="ChVJ7lrTDxY2uoq3VyV2-51" edge="1">
          <mxGeometry relative="1" as="geometry">
            <mxPoint x="380.58" y="1885" as="targetPoint" />
          </mxGeometry>
        </mxCell>
        <mxCell id="ChVJ7lrTDxY2uoq3VyV2-46" value="int choice = userInterface.getUserChoice()" style="rounded=0;whiteSpace=wrap;html=1;" parent="1" vertex="1">
          <mxGeometry x="225.57999999999998" y="1295" width="210" height="60" as="geometry" />
        </mxCell>
        <mxCell id="ChVJ7lrTDxY2uoq3VyV2-85" value="" style="edgeStyle=orthogonalEdgeStyle;rounded=0;orthogonalLoop=1;jettySize=auto;html=1;exitX=0.5;exitY=1;exitDx=0;exitDy=0;entryX=0.5;entryY=0;entryDx=0;entryDy=0;" parent="1" source="ChVJ7lrTDxY2uoq3VyV2-51" target="ChVJ7lrTDxY2uoq3VyV2-52" edge="1">
          <mxGeometry relative="1" as="geometry" />
        </mxCell>
        <mxCell id="ChVJ7lrTDxY2uoq3VyV2-51" value="Â SwitchÂ on &quot;choice&quot;&#xa;(Conditional statement)" style="rounded=0;whiteSpace=wrap;html=1;" parent="1" vertex="1">
          <mxGeometry x="260.58" y="1385" width="140" height="60" as="geometry" />
        </mxCell>
        <mxCell id="ChVJ7lrTDxY2uoq3VyV2-57" value="" style="edgeStyle=orthogonalEdgeStyle;rounded=0;orthogonalLoop=1;jettySize=auto;html=1;exitX=1;exitY=0.5;exitDx=0;exitDy=0;entryX=0;entryY=0.5;entryDx=0;entryDy=0;" parent="1" source="ChVJ7lrTDxY2uoq3VyV2-52" target="ChVJ7lrTDxY2uoq3VyV2-53" edge="1">
          <mxGeometry relative="1" as="geometry" />
        </mxCell>
        <mxCell id="ChVJ7lrTDxY2uoq3VyV2-96" value="FALSE" style="edgeLabel;html=1;align=center;verticalAlign=middle;resizable=0;points=[];" parent="ChVJ7lrTDxY2uoq3VyV2-57" vertex="1" connectable="0">
          <mxGeometry x="-0.309" y="-2" relative="1" as="geometry">
            <mxPoint x="-16" y="-17" as="offset" />
          </mxGeometry>
        </mxCell>
        <mxCell id="ChVJ7lrTDxY2uoq3VyV2-62" value="" style="edgeStyle=orthogonalEdgeStyle;rounded=0;orthogonalLoop=1;jettySize=auto;html=1;exitX=0.5;exitY=1;exitDx=0;exitDy=0;entryX=0.5;entryY=0;entryDx=0;entryDy=0;" parent="1" source="ChVJ7lrTDxY2uoq3VyV2-52" target="ChVJ7lrTDxY2uoq3VyV2-61" edge="1">
          <mxGeometry relative="1" as="geometry" />
        </mxCell>
        <mxCell id="ChVJ7lrTDxY2uoq3VyV2-146" value="TRUE" style="edgeLabel;html=1;align=center;verticalAlign=middle;resizable=0;points=[];" parent="ChVJ7lrTDxY2uoq3VyV2-62" vertex="1" connectable="0">
          <mxGeometry x="-0.405" relative="1" as="geometry">
            <mxPoint x="16" as="offset" />
          </mxGeometry>
        </mxCell>
        <mxCell id="ChVJ7lrTDxY2uoq3VyV2-52" value="Case 1&#xa;choice = 1" style="rhombus;whiteSpace=wrap;html=1;" parent="1" vertex="1">
          <mxGeometry x="270.58" y="1475" width="120" height="120" as="geometry" />
        </mxCell>
        <mxCell id="ChVJ7lrTDxY2uoq3VyV2-119" style="edgeStyle=elbowEdgeStyle;rounded=0;orthogonalLoop=1;jettySize=auto;html=1;exitX=0.5;exitY=1;exitDx=0;exitDy=0;entryX=0.5;entryY=0;entryDx=0;entryDy=0;" parent="1" source="ChVJ7lrTDxY2uoq3VyV2-53" target="ChVJ7lrTDxY2uoq3VyV2-63" edge="1">
          <mxGeometry relative="1" as="geometry" />
        </mxCell>
        <mxCell id="ChVJ7lrTDxY2uoq3VyV2-145" value="TRUE" style="edgeLabel;html=1;align=center;verticalAlign=middle;resizable=0;points=[];" parent="ChVJ7lrTDxY2uoq3VyV2-119" vertex="1" connectable="0">
          <mxGeometry x="-0.405" relative="1" as="geometry">
            <mxPoint x="16" as="offset" />
          </mxGeometry>
        </mxCell>
        <mxCell id="ChVJ7lrTDxY2uoq3VyV2-121" style="edgeStyle=elbowEdgeStyle;rounded=0;orthogonalLoop=1;jettySize=auto;html=1;exitX=1;exitY=0.5;exitDx=0;exitDy=0;entryX=0;entryY=0.5;entryDx=0;entryDy=0;" parent="1" source="ChVJ7lrTDxY2uoq3VyV2-53" target="ChVJ7lrTDxY2uoq3VyV2-54" edge="1">
          <mxGeometry relative="1" as="geometry" />
        </mxCell>
        <mxCell id="ChVJ7lrTDxY2uoq3VyV2-142" value="FALSE" style="edgeLabel;html=1;align=center;verticalAlign=middle;resizable=0;points=[];" parent="ChVJ7lrTDxY2uoq3VyV2-121" vertex="1" connectable="0">
          <mxGeometry x="-0.594" y="-1" relative="1" as="geometry">
            <mxPoint y="-16" as="offset" />
          </mxGeometry>
        </mxCell>
        <mxCell id="ChVJ7lrTDxY2uoq3VyV2-53" value="Case 2&#xa;choice = 2" style="rhombus;whiteSpace=wrap;html=1;" parent="1" vertex="1">
          <mxGeometry x="494.53" y="1475" width="120" height="120" as="geometry" />
        </mxCell>
        <mxCell id="ChVJ7lrTDxY2uoq3VyV2-120" style="edgeStyle=elbowEdgeStyle;rounded=0;orthogonalLoop=1;jettySize=auto;html=1;exitX=0.5;exitY=1;exitDx=0;exitDy=0;entryX=0.5;entryY=0;entryDx=0;entryDy=0;" parent="1" source="ChVJ7lrTDxY2uoq3VyV2-54" target="ChVJ7lrTDxY2uoq3VyV2-64" edge="1">
          <mxGeometry relative="1" as="geometry" />
        </mxCell>
        <mxCell id="ChVJ7lrTDxY2uoq3VyV2-147" value="TRUE" style="edgeLabel;html=1;align=center;verticalAlign=middle;resizable=0;points=[];" parent="ChVJ7lrTDxY2uoq3VyV2-120" vertex="1" connectable="0">
          <mxGeometry x="-0.405" relative="1" as="geometry">
            <mxPoint x="16" as="offset" />
          </mxGeometry>
        </mxCell>
        <mxCell id="ChVJ7lrTDxY2uoq3VyV2-122" style="edgeStyle=elbowEdgeStyle;rounded=0;orthogonalLoop=1;jettySize=auto;html=1;exitX=1;exitY=0.5;exitDx=0;exitDy=0;" parent="1" source="ChVJ7lrTDxY2uoq3VyV2-54" target="ChVJ7lrTDxY2uoq3VyV2-55" edge="1">
          <mxGeometry relative="1" as="geometry" />
        </mxCell>
        <mxCell id="ChVJ7lrTDxY2uoq3VyV2-143" value="FALSE" style="edgeLabel;html=1;align=center;verticalAlign=middle;resizable=0;points=[];" parent="ChVJ7lrTDxY2uoq3VyV2-122" vertex="1" connectable="0">
          <mxGeometry x="-0.8222" y="-2" relative="1" as="geometry">
            <mxPoint x="7" y="-17" as="offset" />
          </mxGeometry>
        </mxCell>
        <mxCell id="ChVJ7lrTDxY2uoq3VyV2-54" value="Case 3&#xa;choice = 3" style="rhombus;whiteSpace=wrap;html=1;" parent="1" vertex="1">
          <mxGeometry x="740" y="1475" width="120" height="120" as="geometry" />
        </mxCell>
        <mxCell id="ChVJ7lrTDxY2uoq3VyV2-123" style="edgeStyle=elbowEdgeStyle;rounded=0;orthogonalLoop=1;jettySize=auto;html=1;exitX=0.5;exitY=1;exitDx=0;exitDy=0;entryX=0.5;entryY=0;entryDx=0;entryDy=0;" parent="1" source="ChVJ7lrTDxY2uoq3VyV2-55" target="ChVJ7lrTDxY2uoq3VyV2-67" edge="1">
          <mxGeometry relative="1" as="geometry" />
        </mxCell>
        <mxCell id="ChVJ7lrTDxY2uoq3VyV2-152" value="TRUE" style="edgeLabel;html=1;align=center;verticalAlign=middle;resizable=0;points=[];" parent="ChVJ7lrTDxY2uoq3VyV2-123" vertex="1" connectable="0">
          <mxGeometry x="-0.405" y="-1" relative="1" as="geometry">
            <mxPoint x="16" as="offset" />
          </mxGeometry>
        </mxCell>
        <mxCell id="ChVJ7lrTDxY2uoq3VyV2-125" style="edgeStyle=elbowEdgeStyle;rounded=0;orthogonalLoop=1;jettySize=auto;html=1;exitX=1;exitY=0.5;exitDx=0;exitDy=0;entryX=0;entryY=0.5;entryDx=0;entryDy=0;" parent="1" source="ChVJ7lrTDxY2uoq3VyV2-55" target="ChVJ7lrTDxY2uoq3VyV2-56" edge="1">
          <mxGeometry relative="1" as="geometry" />
        </mxCell>
        <mxCell id="ChVJ7lrTDxY2uoq3VyV2-144" value="FALSE" style="edgeLabel;html=1;align=center;verticalAlign=middle;resizable=0;points=[];" parent="ChVJ7lrTDxY2uoq3VyV2-125" vertex="1" connectable="0">
          <mxGeometry x="-0.7419" relative="1" as="geometry">
            <mxPoint y="-15" as="offset" />
          </mxGeometry>
        </mxCell>
        <mxCell id="ChVJ7lrTDxY2uoq3VyV2-55" value="Case 4&#xa;choice = 4" style="rhombus;whiteSpace=wrap;html=1;" parent="1" vertex="1">
          <mxGeometry x="984.54" y="1475" width="120" height="120" as="geometry" />
        </mxCell>
        <mxCell id="ChVJ7lrTDxY2uoq3VyV2-126" style="edgeStyle=elbowEdgeStyle;rounded=0;orthogonalLoop=1;jettySize=auto;html=1;exitX=0.5;exitY=1;exitDx=0;exitDy=0;entryX=0.5;entryY=0;entryDx=0;entryDy=0;elbow=horizontal;" parent="1" source="ChVJ7lrTDxY2uoq3VyV2-56" target="ChVJ7lrTDxY2uoq3VyV2-73" edge="1">
          <mxGeometry relative="1" as="geometry" />
        </mxCell>
        <mxCell id="ChVJ7lrTDxY2uoq3VyV2-151" value="TRUE" style="edgeLabel;html=1;align=center;verticalAlign=middle;resizable=0;points=[];" parent="ChVJ7lrTDxY2uoq3VyV2-126" vertex="1" connectable="0">
          <mxGeometry x="-0.405" relative="1" as="geometry">
            <mxPoint x="16" as="offset" />
          </mxGeometry>
        </mxCell>
        <mxCell id="ChVJ7lrTDxY2uoq3VyV2-56" value="Default" style="rhombus;whiteSpace=wrap;html=1;" parent="1" vertex="1">
          <mxGeometry x="1245" y="1475" width="120" height="120" as="geometry" />
        </mxCell>
        <mxCell id="ChVJ7lrTDxY2uoq3VyV2-140" style="edgeStyle=elbowEdgeStyle;rounded=0;orthogonalLoop=1;jettySize=auto;html=1;exitX=0.5;exitY=1;exitDx=0;exitDy=0;endArrow=none;endFill=0;" parent="1" source="ChVJ7lrTDxY2uoq3VyV2-61" edge="1">
          <mxGeometry relative="1" as="geometry">
            <mxPoint x="560" y="1810" as="targetPoint" />
            <Array as="points">
              <mxPoint x="330" y="1802.5" />
            </Array>
          </mxGeometry>
        </mxCell>
        <mxCell id="ChVJ7lrTDxY2uoq3VyV2-61" value="userCreator(database)" style="shape=process;whiteSpace=wrap;html=1;backgroundOutline=1;" parent="1" vertex="1">
          <mxGeometry x="240.57999999999993" y="1640" width="180" height="60" as="geometry" />
        </mxCell>
        <mxCell id="ChVJ7lrTDxY2uoq3VyV2-138" style="edgeStyle=elbowEdgeStyle;rounded=0;orthogonalLoop=1;jettySize=auto;html=1;exitX=0.5;exitY=1;exitDx=0;exitDy=0;endArrow=none;endFill=0;" parent="1" source="ChVJ7lrTDxY2uoq3VyV2-64" edge="1">
          <mxGeometry relative="1" as="geometry">
            <mxPoint x="1050" y="1810" as="targetPoint" />
            <Array as="points">
              <mxPoint x="800" y="1792.5" />
            </Array>
          </mxGeometry>
        </mxCell>
        <mxCell id="ChVJ7lrTDxY2uoq3VyV2-64" value="userDisplay.runUserChoice()" style="shape=process;whiteSpace=wrap;html=1;backgroundOutline=1;" parent="1" vertex="1">
          <mxGeometry x="683.63" y="1640" width="232.74" height="60" as="geometry" />
        </mxCell>
        <mxCell id="ChVJ7lrTDxY2uoq3VyV2-124" style="edgeStyle=elbowEdgeStyle;rounded=0;orthogonalLoop=1;jettySize=auto;html=1;exitX=0.5;exitY=1;exitDx=0;exitDy=0;entryX=0.5;entryY=0;entryDx=0;entryDy=0;" parent="1" source="ChVJ7lrTDxY2uoq3VyV2-67" target="ChVJ7lrTDxY2uoq3VyV2-69" edge="1">
          <mxGeometry relative="1" as="geometry" />
        </mxCell>
        <mxCell id="ChVJ7lrTDxY2uoq3VyV2-67" value="displayMessages(&quot;exitProgram&quot;)" style="shape=process;whiteSpace=wrap;html=1;backgroundOutline=1;" parent="1" vertex="1">
          <mxGeometry x="930" y="1640" width="229.08" height="60" as="geometry" />
        </mxCell>
        <mxCell id="ChVJ7lrTDxY2uoq3VyV2-137" style="edgeStyle=elbowEdgeStyle;rounded=0;orthogonalLoop=1;jettySize=auto;html=1;exitX=0.5;exitY=1;exitDx=0;exitDy=0;endArrow=none;endFill=0;" parent="1" source="ChVJ7lrTDxY2uoq3VyV2-69" edge="1">
          <mxGeometry relative="1" as="geometry">
            <mxPoint x="1310" y="1810" as="targetPoint" />
            <Array as="points">
              <mxPoint x="1044.54" y="1872.5" />
            </Array>
          </mxGeometry>
        </mxCell>
        <mxCell id="ChVJ7lrTDxY2uoq3VyV2-69" value="exitProgram = true" style="rounded=0;whiteSpace=wrap;html=1;" parent="1" vertex="1">
          <mxGeometry x="976.25" y="1730" width="136.58" height="60" as="geometry" />
        </mxCell>
        <mxCell id="ChVJ7lrTDxY2uoq3VyV2-73" value="displayMessages(&quot;invalidChoice&quot;)" style="shape=process;whiteSpace=wrap;html=1;backgroundOutline=1;" parent="1" vertex="1">
          <mxGeometry x="1170" y="1640" width="270" height="60" as="geometry" />
        </mxCell>
        <mxCell id="ChVJ7lrTDxY2uoq3VyV2-104" value="END" style="strokeWidth=2;html=1;shape=mxgraph.flowchart.start_1;whiteSpace=wrap;" parent="1" vertex="1">
          <mxGeometry x="303.9100000000001" y="800" width="133.33" height="80" as="geometry" />
        </mxCell>
        <mxCell id="ChVJ7lrTDxY2uoq3VyV2-106" value="" style="edgeStyle=elbowEdgeStyle;rounded=0;orthogonalLoop=1;jettySize=auto;html=1;exitX=0.5;exitY=1;exitDx=0;exitDy=0;entryX=0.5;entryY=0;entryDx=0;entryDy=0;entryPerimeter=0;" parent="1" source="ChVJ7lrTDxY2uoq3VyV2-19" target="ChVJ7lrTDxY2uoq3VyV2-104" edge="1">
          <mxGeometry relative="1" as="geometry" />
        </mxCell>
        <mxCell id="ChVJ7lrTDxY2uoq3VyV2-139" style="edgeStyle=elbowEdgeStyle;rounded=0;orthogonalLoop=1;jettySize=auto;html=1;exitX=0.5;exitY=1;exitDx=0;exitDy=0;endArrow=none;endFill=0;" parent="1" source="ChVJ7lrTDxY2uoq3VyV2-63" edge="1">
          <mxGeometry relative="1" as="geometry">
            <mxPoint x="800" y="1810" as="targetPoint" />
            <Array as="points">
              <mxPoint x="555" y="1802.5" />
            </Array>
          </mxGeometry>
        </mxCell>
        <mxCell id="ChVJ7lrTDxY2uoq3VyV2-63" value="userManagement.runUserChoice()" style="shape=process;whiteSpace=wrap;html=1;backgroundOutline=1;" parent="1" vertex="1">
          <mxGeometry x="437.24" y="1640" width="234.57" height="60" as="geometry" />
        </mxCell>
        <object label="" id="ChVJ7lrTDxY2uoq3VyV2-135">
          <mxCell style="edgeStyle=orthogonalEdgeStyle;rounded=0;orthogonalLoop=1;jettySize=auto;html=1;exitX=0.5;exitY=1;exitDx=0;exitDy=0;jumpStyle=sharp;elbow=vertical;" parent="1" source="ChVJ7lrTDxY2uoq3VyV2-73" edge="1">
            <mxGeometry relative="1" as="geometry">
              <mxPoint x="120" y="1070" as="targetPoint" />
              <mxPoint x="1417.42" y="1827.5000000000002" as="sourcePoint" />
              <Array as="points">
                <mxPoint x="1305" y="1810" />
                <mxPoint x="1460" y="1810" />
                <mxPoint x="1460" y="1070" />
              </Array>
            </mxGeometry>
          </mxCell>
        </object>
      </root>
    </mxGraphModel>
  </diagram>
</mxfile>
